<svg xmlns="http://www.w3.org/2000/svg" viewBox="0 0 1200 170" role="img" aria-label="Pac-Man style contribution graph">
  <defs>
    <linearGradient id="bg" x1="0%" y1="0%" x2="0%" y2="100%">
      <stop offset="0%" stop-color="#0b1220" />
      <stop offset="100%" stop-color="#070d18" />
    </linearGradient>
    <pattern id="grid" width="24" height="24" patternUnits="userSpaceOnUse">
      <rect x="1" y="1" width="22" height="22" rx="4" fill="#111827" />
    </pattern>
    <circle id="pellet" r="2.2" fill="#f8fafc" />
  </defs>

  <rect width="1200" height="170" fill="url(#bg)" />
  <rect width="1200" height="170" fill="url(#grid)" opacity="0.9" />

  <g stroke="#f8fafc" stroke-width="3.2" fill="none" stroke-linecap="round" stroke-linejoin="round" opacity="0.96">
    <path d="M18 34 H332 V78 H90 V132 H440 V46 H670 V110 H930 V50 H1182" />
    <path d="M18 86 H230 V34 H530 V132 H800 V86 H1034 V132 H1182" />
  </g>

  <g>
    <use href="#pellet" x="36" y="34" />
    <use href="#pellet" x="60" y="34" />
    <use href="#pellet" x="84" y="34" />
    <use href="#pellet" x="108" y="34" />
    <use href="#pellet" x="132" y="34" />
    <use href="#pellet" x="156" y="34" />
    <use href="#pellet" x="180" y="34" />
    <use href="#pellet" x="204" y="34" />
    <use href="#pellet" x="228" y="34" />
    <use href="#pellet" x="252" y="34" />
    <use href="#pellet" x="276" y="34" />
    <use href="#pellet" x="300" y="34" />
    <use href="#pellet" x="324" y="34" />
    <use href="#pellet" x="332" y="58" />
    <use href="#pellet" x="320" y="78" />
    <use href="#pellet" x="296" y="78" />
    <use href="#pellet" x="272" y="78" />
    <use href="#pellet" x="248" y="78" />
    <use href="#pellet" x="224" y="78" />
    <use href="#pellet" x="200" y="78" />
    <use href="#pellet" x="176" y="78" />
    <use href="#pellet" x="152" y="78" />
    <use href="#pellet" x="128" y="78" />
    <use href="#pellet" x="104" y="78" />
    <use href="#pellet" x="90" y="98" />
    <use href="#pellet" x="90" y="122" />
    <use href="#pellet" x="114" y="132" />
    <use href="#pellet" x="138" y="132" />
    <use href="#pellet" x="162" y="132" />
    <use href="#pellet" x="186" y="132" />
    <use href="#pellet" x="210" y="132" />
    <use href="#pellet" x="234" y="132" />
    <use href="#pellet" x="258" y="132" />
    <use href="#pellet" x="282" y="132" />
    <use href="#pellet" x="306" y="132" />
    <use href="#pellet" x="330" y="132" />
    <use href="#pellet" x="354" y="132" />
    <use href="#pellet" x="378" y="132" />
    <use href="#pellet" x="402" y="132" />
    <use href="#pellet" x="426" y="132" />
    <use href="#pellet" x="440" y="110" />
    <use href="#pellet" x="440" y="86" />
    <use href="#pellet" x="440" y="62" />
    <use href="#pellet" x="462" y="46" />
    <use href="#pellet" x="486" y="46" />
    <use href="#pellet" x="510" y="46" />
    <use href="#pellet" x="534" y="46" />
    <use href="#pellet" x="558" y="46" />
    <use href="#pellet" x="582" y="46" />
    <use href="#pellet" x="606" y="46" />
    <use href="#pellet" x="630" y="46" />
    <use href="#pellet" x="654" y="46" />
    <use href="#pellet" x="670" y="64" />
    <use href="#pellet" x="670" y="88" />
    <use href="#pellet" x="686" y="110" />
    <use href="#pellet" x="710" y="110" />
    <use href="#pellet" x="734" y="110" />
    <use href="#pellet" x="758" y="110" />
    <use href="#pellet" x="782" y="110" />
    <use href="#pellet" x="806" y="110" />
    <use href="#pellet" x="830" y="110" />
    <use href="#pellet" x="854" y="110" />
    <use href="#pellet" x="878" y="110" />
    <use href="#pellet" x="902" y="110" />
    <use href="#pellet" x="926" y="110" />
    <use href="#pellet" x="930" y="88" />
    <use href="#pellet" x="930" y="64" />
    <use href="#pellet" x="950" y="50" />
    <use href="#pellet" x="974" y="50" />
    <use href="#pellet" x="998" y="50" />
    <use href="#pellet" x="1022" y="50" />
    <use href="#pellet" x="1046" y="50" />
    <use href="#pellet" x="1070" y="50" />
    <use href="#pellet" x="1094" y="50" />
    <use href="#pellet" x="1118" y="50" />
    <use href="#pellet" x="1142" y="50" />
    <use href="#pellet" x="1166" y="50" />

    <use href="#pellet" x="38" y="86" />
    <use href="#pellet" x="62" y="86" />
    <use href="#pellet" x="86" y="86" />
    <use href="#pellet" x="110" y="86" />
    <use href="#pellet" x="134" y="86" />
    <use href="#pellet" x="158" y="86" />
    <use href="#pellet" x="182" y="86" />
    <use href="#pellet" x="206" y="86" />
    <use href="#pellet" x="230" y="66" />
    <use href="#pellet" x="230" y="42" />
    <use href="#pellet" x="252" y="34" />
    <use href="#pellet" x="276" y="34" />
    <use href="#pellet" x="300" y="34" />
    <use href="#pellet" x="324" y="34" />
    <use href="#pellet" x="348" y="34" />
    <use href="#pellet" x="372" y="34" />
    <use href="#pellet" x="396" y="34" />
    <use href="#pellet" x="420" y="34" />
    <use href="#pellet" x="444" y="34" />
    <use href="#pellet" x="468" y="34" />
    <use href="#pellet" x="492" y="34" />
    <use href="#pellet" x="516" y="34" />
    <use href="#pellet" x="530" y="54" />
    <use href="#pellet" x="530" y="78" />
    <use href="#pellet" x="530" y="102" />
    <use href="#pellet" x="542" y="126" />
    <use href="#pellet" x="566" y="132" />
    <use href="#pellet" x="590" y="132" />
    <use href="#pellet" x="614" y="132" />
    <use href="#pellet" x="638" y="132" />
    <use href="#pellet" x="662" y="132" />
    <use href="#pellet" x="686" y="132" />
    <use href="#pellet" x="710" y="132" />
    <use href="#pellet" x="734" y="132" />
    <use href="#pellet" x="758" y="132" />
    <use href="#pellet" x="782" y="132" />
    <use href="#pellet" x="800" y="114" />
    <use href="#pellet" x="800" y="90" />
    <use href="#pellet" x="822" y="86" />
    <use href="#pellet" x="846" y="86" />
    <use href="#pellet" x="870" y="86" />
    <use href="#pellet" x="894" y="86" />
    <use href="#pellet" x="918" y="86" />
    <use href="#pellet" x="942" y="86" />
    <use href="#pellet" x="966" y="86" />
    <use href="#pellet" x="990" y="86" />
    <use href="#pellet" x="1014" y="86" />
    <use href="#pellet" x="1034" y="104" />
    <use href="#pellet" x="1034" y="128" />
    <use href="#pellet" x="1058" y="132" />
    <use href="#pellet" x="1082" y="132" />
    <use href="#pellet" x="1106" y="132" />
    <use href="#pellet" x="1130" y="132" />
    <use href="#pellet" x="1154" y="132" />
    <use href="#pellet" x="1178" y="132" />
  </g>

  <g fill="#facc15">
    <circle cx="90" cy="34" r="5.5" />
    <circle cx="440" cy="132" r="5.5" />
    <circle cx="670" cy="46" r="5.5" />
    <circle cx="1034" cy="132" r="5.5" />
  </g>

  <path d="M0 -13 A13 13 0 1 1 0 13 L7 0 Z" fill="#facc15" transform="translate(250 34)" />
  <circle cx="252" cy="29" r="1.6" fill="#111827" />

  <g>
    <path d="M0 0 C0 -8 16 -8 16 0 V9 H0 Z" fill="#ef4444" transform="translate(610 34)" />
    <circle cx="615" cy="36.5" r="2.1" fill="#fff" />
    <circle cx="621" cy="36.5" r="2.1" fill="#fff" />
    <circle cx="615.5" cy="37" r="0.8" fill="#111827" />
    <circle cx="621.5" cy="37" r="0.8" fill="#111827" />
  </g>

  <g>
    <path d="M0 0 C0 -8 16 -8 16 0 V9 H0 Z" fill="#22d3ee" transform="translate(510 132)" />
    <circle cx="515" cy="134.5" r="2.1" fill="#fff" />
    <circle cx="521" cy="134.5" r="2.1" fill="#fff" />
    <circle cx="515.5" cy="135" r="0.8" fill="#111827" />
    <circle cx="521.5" cy="135" r="0.8" fill="#111827" />
  </g>
</svg>
